REM MD5 285b678d7096d21859106a44c49ff0cf
FILE "Euro Demo Germany 12-01 (Germany).bin" BINARY
  TRACK 01 MODE2/2352
    INDEX 01 00:00:00
  TRACK 02 AUDIO
    INDEX 00 51:23:72
    INDEX 01 51:25:72
  TRACK 03 AUDIO
    INDEX 00 53:54:65
    INDEX 01 53:56:65
REM LEADOUT 56:58:22
